<svg xmlns="http://www.w3.org/2000/svg" version="1.1" xmlns:xlink="http://www.w3.org/1999/xlink" xmlns:svgjs="http://svgjs.dev/svgjs" width="2000" height="1247" viewBox="0 0 2000 1247"><g transform="matrix(1,0,0,1,-1.2121212121212466,0.504858299595071)"><svg viewBox="0 0 396 247" data-background-color="#ffffff" preserveAspectRatio="xMidYMid meet" height="1247" width="2000" xmlns="http://www.w3.org/2000/svg" xmlns:xlink="http://www.w3.org/1999/xlink"><g id="tight-bounds" transform="matrix(1,0,0,1,0.2400000000000091,-0.09999999999999432)"><svg viewBox="0 0 395.52 247.2" height="247.2" width="395.52"><g><svg></svg></g><g><svg viewBox="0 0 395.52 247.2" height="247.2" width="395.52"><g transform="matrix(1,0,0,1,75.54432,47.501387475468334)"><svg viewBox="0 0 244.43135999999998 152.19722504906332" height="152.19722504906332" width="244.43135999999998"><g><svg viewBox="0 0 244.43135999999998 152.19722504906332" height="152.19722504906332" width="244.43135999999998"><g><svg viewBox="0 0 244.43135999999998 152.19722504906332" height="152.19722504906332" width="244.43135999999998"><g><svg viewBox="0 0 244.43135999999998 152.19722504906332" height="152.19722504906332" width="244.43135999999998"><g id="textblocktransform"><svg viewBox="0 0 244.43135999999998 152.19722504906332" height="152.19722504906332" width="244.43135999999998" id="textblock"><g><svg viewBox="0 0 244.43135999999998 152.19722504906332" height="152.19722504906332" width="244.43135999999998"><g transform="matrix(1,0,0,1,0,0)"><svg width="244.43135999999998" viewBox="3.8499999046325684 -34.900001525878906 56.05000305175781 34.900001525878906" height="152.19722504906332" data-palette-color="#020202"><path d="M3.85 0L3.85-34.9 15.35-34.9Q18.45-34.9 20.88-33.9 23.3-32.9 24.98-30.78 26.65-28.65 27.53-25.35 28.4-22.05 28.4-17.45L28.4-17.45Q28.4-12.85 27.53-9.55 26.65-6.25 24.98-4.13 23.3-2 20.88-1 18.45 0 15.35 0L15.35 0 3.85 0ZM9.15-4.65L15.35-4.65Q18.8-4.65 20.75-6.88 22.7-9.1 22.7-13.4L22.7-13.4 22.7-21.5Q22.7-25.8 20.75-28.03 18.8-30.25 15.35-30.25L15.35-30.25 9.15-30.25 9.15-4.65ZM53.65 0L44.35-16.5 40-10.9 40 0 34.7 0 34.7-34.9 40-34.9 40-23.4 39.7-16.9 40.35-16.9 44.8-23.4 53-34.9 59.1-34.9 48-20.1 59.9 0 53.65 0Z" opacity="1" transform="matrix(1,0,0,1,0,0)" fill="#ffffff" class="undefined-text-0" data-fill-palette-color="primary" id="text-0"></path></svg></g></svg></g></svg></g></svg></g></svg></g></svg></g></svg></g><path d="M137.757 41.501L137.757 0 384.957 0 384.957 247.2 137.757 247.2 137.757 205.699 151.482 205.699 151.482 233.475 371.232 233.475 371.232 13.725 151.482 13.725 151.482 41.501Z" fill="#ffffff" stroke="transparent" data-fill-palette-color="primary"></path></svg></g><defs></defs></svg><rect width="395.52" height="247.2" fill="none" stroke="none" visibility="hidden"></rect></g></svg></g></svg>